<?xml version="1.0" encoding="UTF-8"?>
<svg id="Variations" xmlns="http://www.w3.org/2000/svg" width="1920" height="1080" viewBox="0 0 1920 1080">
  <defs>
    <style>
      .cls-1 {
        fill: #fff;
      }

      .cls-2 {
        font-family: RobotoSlab-Bold, 'Roboto Slab';
        font-size: 271.59px;
        font-weight: 700;
      }
    </style>
  </defs>
  <rect class="cls-1" width="1920" height="1080"/>
  <g>
    <g>
      <path d="M672.95,481.31c-.94-6-3.71-11.66-8.25-16.2l-110.87-110.81c-5.54-5.59-13.13-8.78-21.02-8.78h-184.64c-7.84,0-15.37,3.12-20.91,8.66l-61.46,61.47c-4.18,4.12-5.18,10.77-1.83,15.54,4.36,6.13,12.9,6.66,18.02,1.59l61.94-61.94c1.12-1.12,2.66-1.77,4.25-1.77h184.59c1.65,0,3.23.64,4.41,1.82l98.98,98.92c.36.41.36.94,0,1.29l-226.1,226.16c-.41.36-.94.36-1.36,0l-59.17-59.23c-.36-.36-.36-.94,0-1.3l49.63-49.63c8.89-8.89,8.89-23.26,0-32.15-8.89-8.89-23.26-8.89-32.15,0l-45.99,45.92c-.23.24-.47.53-.64.77-10.95,11.54-10.66,29.91.64,41.22l82.96,82.96c6.84,6.77,16.13,9.59,25.02,8.36,5.54-.77,10.95-3.12,15.43-7.06.53-.36,1-.83,1.47-1.36l218.75-218.75c.52-.47,1-.93,1.36-1.47,6.06-6.89,8.36-15.84,6.95-24.26Z"/>
      <path d="M478.77,525.03s.05-.03.07-.05c3.95-2.63,5.62-4.59,5.62-4.59,14.03-14.03,14.03-36.78,0-50.81-14.03-14.03-36.78-14.03-50.81,0,0,0-1.96,1.66-4.59,5.62-.02.02-.03.05-.05.07-5.63,8.48-14.31,27.46-13.79,63.55,36.09.52,55.07-8.16,63.55-13.79Z"/>
    </g>
    <text class="cls-2" transform="translate(810.65 582.35)"><tspan x="0" y="0">IPHIPI</tspan></text>
  </g>
</svg>